<?xml version="1.0" encoding="UTF-8" standalone="no"?>
<!DOCTYPE svg PUBLIC "-//W3C//DTD SVG 1.1//EN" "http://www.w3.org/Graphics/SVG/1.1/DTD/svg11.dtd">
<svg width="100%" height="100%" viewBox="0 0 107 136" version="1.1" xmlns="http://www.w3.org/2000/svg" xmlns:xlink="http://www.w3.org/1999/xlink" xml:space="preserve" xmlns:serif="http://www.serif.com/" style="fill-rule:evenodd;clip-rule:evenodd;stroke-linejoin:round;stroke-miterlimit:2;">
    <g transform="matrix(1,0,0,1,-1693.47,-1633.64)">
        <g id="Medium-L" transform="matrix(1,0,0,1,1677.4,1736.7)">
            <path d="M41.115,-43.502C42.756,-43.502 43.819,-44.444 44.304,-46.327L46.558,-52.608L58.27,-52.608L60.581,-46.327C61.11,-44.444 62.158,-43.502 63.725,-43.502C64.728,-43.502 65.508,-43.768 66.064,-44.301C66.62,-44.833 66.898,-45.568 66.898,-46.505C66.898,-47.025 66.762,-47.7 66.489,-48.528L57.237,-73.827C56.367,-76.298 54.747,-77.533 52.376,-77.533C50.076,-77.533 48.497,-76.298 47.64,-73.827L38.378,-48.528C38.127,-47.735 38.001,-47.061 38.001,-46.505C38.001,-45.556 38.284,-44.818 38.848,-44.292C39.413,-43.765 40.168,-43.502 41.115,-43.502ZM47.942,-57.634L52.239,-70.762L52.589,-70.762L56.924,-57.634L47.942,-57.634ZM77.881,-66.863L97.544,-66.863C98.573,-66.863 99.432,-67.209 100.121,-67.9C100.81,-68.592 101.155,-69.456 101.155,-70.491C101.155,-71.488 100.81,-72.323 100.121,-72.996C99.432,-73.669 98.573,-74.005 97.544,-74.005L77.881,-74.005C76.819,-74.005 75.943,-73.669 75.254,-72.996C74.565,-72.323 74.221,-71.488 74.221,-70.491C74.221,-69.456 74.565,-68.592 75.254,-67.9C75.943,-67.209 76.819,-66.863 77.881,-66.863ZM77.881,-45.477L97.544,-45.477C98.573,-45.477 99.432,-45.83 100.121,-46.536C100.81,-47.241 101.155,-48.098 101.155,-49.107C101.155,-50.103 100.81,-50.939 100.121,-51.615C99.432,-52.291 98.573,-52.629 97.544,-52.629L77.881,-52.629C76.819,-52.629 75.943,-52.291 75.254,-51.615C74.565,-50.939 74.221,-50.103 74.221,-49.107C74.221,-48.098 74.565,-47.241 75.254,-46.536C75.943,-45.83 76.819,-45.477 77.881,-45.477ZM37.483,6.338L41.455,6.338L49.991,-2.09C51.131,-3.177 52.367,-3.721 53.7,-3.721C55.1,-3.721 56.395,-3.177 57.585,-2.09L62.731,2.576L75.707,-8.867C77.155,-10.11 78.647,-10.732 80.183,-10.732C80.974,-10.732 81.755,-10.585 82.528,-10.291C83.301,-9.996 83.985,-9.508 84.58,-8.827L97.433,5.814L101.395,5.814L101.395,-24.561C101.395,-30.01 98.66,-32.735 93.191,-32.735L45.755,-32.735C43.117,-32.735 41.079,-32.048 39.641,-30.674C38.202,-29.301 37.483,-27.263 37.483,-24.561L37.483,6.338ZM58.064,-8.89C56.187,-8.89 54.582,-9.566 53.249,-10.919C51.915,-12.271 51.245,-13.873 51.239,-15.723C51.233,-17.6 51.9,-19.227 53.24,-20.604C54.579,-21.981 56.187,-22.639 58.064,-22.58C59.941,-22.542 61.553,-21.859 62.9,-20.531C64.247,-19.203 64.921,-17.6 64.921,-15.723C64.921,-13.873 64.247,-12.271 62.9,-10.919C61.553,-9.566 59.941,-8.89 58.064,-8.89ZM16.064,12.769C16.064,19.319 17.725,24.27 21.045,27.623C24.365,30.975 29.273,32.651 35.769,32.651L103.093,32.651C109.589,32.651 114.497,30.975 117.817,27.623C121.137,24.27 122.797,19.319 122.797,12.769L122.797,-83.18C122.797,-89.703 121.137,-94.647 117.817,-98.013C114.497,-101.379 109.589,-103.062 103.093,-103.062L35.769,-103.062C29.273,-103.062 24.365,-101.379 21.045,-98.013C17.725,-94.647 16.064,-89.703 16.064,-83.18L16.064,12.769ZM26.799,12.117L26.799,-82.527C26.799,-85.711 27.622,-88.141 29.269,-89.815C30.916,-91.49 33.385,-92.327 36.678,-92.327L102.183,-92.327C105.476,-92.327 107.947,-91.49 109.597,-89.815C111.246,-88.141 112.071,-85.711 112.071,-82.527L112.071,12.117C112.071,15.301 111.246,17.73 109.597,19.405C107.947,21.08 105.476,21.917 102.183,21.917L36.678,21.917C33.385,21.917 30.916,21.08 29.269,19.405C27.622,17.73 26.799,15.301 26.799,12.117Z" style="fill:rgb(39,184,143);fill-rule:nonzero;"/>
        </g>
    </g>
</svg>
