<?xml version="1.0" encoding="UTF-8" standalone="no"?>
<!DOCTYPE svg PUBLIC "-//W3C//DTD SVG 1.1//EN" "http://www.w3.org/Graphics/SVG/1.1/DTD/svg11.dtd">
<svg width="100%" height="100%" viewBox="0 0 118 148" version="1.1" xmlns="http://www.w3.org/2000/svg" xmlns:xlink="http://www.w3.org/1999/xlink" xml:space="preserve" xmlns:serif="http://www.serif.com/" style="fill-rule:evenodd;clip-rule:evenodd;stroke-linejoin:round;stroke-miterlimit:2;">
    <g transform="matrix(1,0,0,1,-1670.52,-1602.59)">
        <g id="Medium-L" transform="matrix(1,0,0,1,1654.45,1708.01)">
            <path d="M35.809,30.299L73.013,30.299C71.369,28.792 69.888,27.134 68.569,25.325C67.25,23.516 66.16,21.583 65.298,19.524L36.688,19.524C33.421,19.524 30.963,18.702 29.313,17.057C27.664,15.412 26.839,13.01 26.839,9.853L26.839,-84.92C26.839,-88.023 27.657,-90.426 29.293,-92.128C30.93,-93.829 33.395,-94.68 36.688,-94.68L102.222,-94.68C105.403,-94.68 107.839,-93.843 109.532,-92.168C111.225,-90.493 112.071,-88.077 112.071,-84.92L112.071,-27.298C114.13,-26.442 116.063,-25.356 117.872,-24.04C119.681,-22.724 121.323,-21.244 122.797,-19.601L122.797,-85.532C122.797,-92.088 121.137,-97.04 117.817,-100.389C114.497,-103.739 109.592,-105.414 103.101,-105.414L35.809,-105.414C29.345,-105.414 24.438,-103.738 21.089,-100.385C17.739,-97.033 16.064,-92.082 16.064,-85.532L16.064,10.377C16.064,16.926 17.733,21.884 21.069,25.25C24.405,28.616 29.319,30.299 35.809,30.299ZM45.823,-69.151L93.144,-69.151C94.174,-69.151 95.033,-69.504 95.722,-70.21C96.411,-70.915 96.756,-71.769 96.756,-72.772C96.756,-73.774 96.411,-74.612 95.722,-75.285C95.033,-75.957 94.174,-76.294 93.144,-76.294L45.823,-76.294C44.755,-76.294 43.877,-75.957 43.188,-75.285C42.499,-74.612 42.154,-73.774 42.154,-72.772C42.154,-71.769 42.499,-70.915 43.188,-70.21C43.877,-69.504 44.755,-69.151 45.823,-69.151ZM45.823,-47.45L93.144,-47.45C94.174,-47.45 95.033,-47.803 95.722,-48.509C96.411,-49.214 96.756,-50.071 96.756,-51.079C96.756,-52.076 96.411,-52.917 95.722,-53.603C95.033,-54.29 94.174,-54.633 93.144,-54.633L45.823,-54.633C44.755,-54.633 43.877,-54.29 43.188,-53.603C42.499,-52.917 42.154,-52.076 42.154,-51.079C42.154,-50.071 42.499,-49.214 43.188,-48.509C43.877,-47.803 44.755,-47.45 45.823,-47.45Z" style="fill:rgb(77,77,77);fill-rule:nonzero;"/>
            <path d="M95.815,30.299C99.535,30.299 103.029,29.595 106.296,28.188C109.563,26.781 112.436,24.838 114.915,22.36C117.394,19.881 119.33,17.008 120.723,13.741C122.117,10.474 122.814,6.98 122.814,3.26C122.814,-0.487 122.117,-3.994 120.723,-7.261C119.33,-10.528 117.395,-13.407 114.919,-15.896C112.444,-18.384 109.571,-20.326 106.301,-21.72C103.03,-23.114 99.535,-23.811 95.815,-23.811C92.101,-23.811 88.611,-23.107 85.343,-21.7C82.076,-20.293 79.196,-18.343 76.704,-15.851C74.213,-13.359 72.257,-10.48 70.836,-7.212C69.415,-3.945 68.705,-0.454 68.705,3.26C68.705,6.98 69.415,10.474 70.836,13.741C72.257,17.008 74.213,19.881 76.704,22.36C79.196,24.838 82.076,26.781 85.343,28.188C88.611,29.595 92.101,30.299 95.815,30.299ZM95.815,21.797C92.399,21.797 89.278,20.961 86.454,19.288C83.629,17.615 81.379,15.374 79.703,12.566C78.027,9.758 77.19,6.656 77.19,3.26C77.19,-0.13 78.027,-3.229 79.703,-6.038C81.379,-8.846 83.629,-11.087 86.454,-12.759C89.278,-14.432 92.399,-15.269 95.815,-15.269C99.179,-15.269 102.258,-14.432 105.053,-12.759C107.848,-11.087 110.083,-8.846 111.759,-6.038C113.434,-3.229 114.272,-0.13 114.272,3.26C114.272,6.656 113.441,9.758 111.779,12.566C110.116,15.374 107.888,17.615 105.093,19.288C102.298,20.961 99.205,21.797 95.815,21.797ZM128.557,41.641C130.017,41.641 131.226,41.139 132.183,40.136C133.141,39.132 133.62,37.868 133.62,36.343C133.62,35.654 133.468,34.983 133.163,34.33C132.858,33.676 132.433,33.076 131.886,32.529L114.948,15.551L107.174,22.662L124.21,39.729C125.497,41.004 126.946,41.641 128.557,41.641Z" style="fill:rgb(39,184,143);fill-rule:nonzero;"/>
        </g>
    </g>
</svg>
