<?xml version="1.0" encoding="UTF-8" standalone="no"?>
<!DOCTYPE svg PUBLIC "-//W3C//DTD SVG 1.1//EN" "http://www.w3.org/Graphics/SVG/1.1/DTD/svg11.dtd">
<svg width="100%" height="100%" viewBox="0 0 283 102" version="1.1" xmlns="http://www.w3.org/2000/svg" xmlns:xlink="http://www.w3.org/1999/xlink" xml:space="preserve" xmlns:serif="http://www.serif.com/" style="fill-rule:evenodd;clip-rule:evenodd;stroke-linejoin:round;stroke-miterlimit:2;">
    <g transform="matrix(1,0,0,1,-343.925,-526.913)">
        <g transform="matrix(-0.184312,0.982868,0.982868,0.184312,410.543,514.284)">
            <path d="M49.61,-58.475C58.996,-56.715 64.151,-42.132 61.113,-25.931L49.61,35.409C43.345,35.135 37.231,36.051 31.522,37.982L49.61,-58.475Z" style="fill-rule:nonzero;"/>
        </g>
        <g transform="matrix(1,0,0,1,435.842,590.252)">
            <path d="M0,-17.304L-62.772,-17.304C-62.772,-7.754 -49.39,0 -32.906,0L1.731,0C0.513,-4.319 -0.153,-8.869 -0.153,-13.576C-0.153,-14.831 -0.091,-16.072 0,-17.304" style="fill-rule:nonzero;"/>
        </g>
        <g transform="matrix(-0.355237,0.934776,0.934776,0.355237,443.012,584.391)">
            <path d="M22.767,-33.008C31.694,-29.615 34.188,-14.35 28.333,1.058L22.767,15.704C19.844,9.549 15.681,3.979 10.444,-0.58L22.767,-33.008Z" style="fill-rule:nonzero;"/>
        </g>
        <g transform="matrix(0.250491,-0.968119,-0.968119,-0.250491,590.698,545.169)">
            <path d="M-22.247,-11.431C-18.118,-27.389 -7.259,-38.403 1.987,-36.011L-22.247,57.649C-26.596,53.477 -31.742,50.051 -37.53,47.639L-22.247,-11.431Z" style="fill-rule:nonzero;"/>
        </g>
        <g transform="matrix(1,0,0,1,533.805,572.948)">
            <path d="M0,17.304L33.242,17.304C49.726,17.304 63.109,9.55 63.109,0L1.731,0C1.822,1.232 1.884,2.473 1.884,3.728C1.884,8.435 1.218,12.985 0,17.304" style="fill-rule:nonzero;"/>
        </g>
        <g transform="matrix(0.980926,-0.194382,-0.194382,-0.980926,537.878,612.602)">
            <path d="M-1.533,1.681C14.637,-1.524 29.271,3.481 31.128,12.849L-1.533,19.321C-5.155,13.397 -9.954,8.364 -15.534,4.455L-1.533,1.681Z" style="fill-rule:nonzero;"/>
        </g>
        <g transform="matrix(1,0,0,1,485.403,531.967)">
            <path d="M0,90.979C-25.123,90.979 -45.489,70.613 -45.489,45.49C-45.489,20.366 -25.123,0 0,0C25.123,0 45.489,20.366 45.489,45.49C45.489,70.613 25.123,90.979 0,90.979M0,-5.054C-27.915,-5.054 -50.544,17.575 -50.544,45.49C-50.544,73.404 -27.915,96.033 0,96.033C27.915,96.033 50.544,73.404 50.544,45.49C50.544,17.575 27.915,-5.054 0,-5.054" style="fill-rule:nonzero;"/>
        </g>
        <g transform="matrix(1,0,0,1,476.956,562.178)">
            <path d="M0,28.84L0,49.106L17.148,49.106L17.148,28.84L34.296,38.973L42.87,24.163L25.722,14.42L42.87,4.287L34.296,-10.523L16.758,-0.39L16.758,-20.266L0,-20.266L0,-0.39L-17.148,-10.523L-25.722,4.287L-8.574,14.42L-25.722,24.163L-17.148,38.973L0,28.84Z"/>
        </g>
    </g>
</svg>
