<?xml version="1.0" encoding="UTF-8" standalone="no"?>
<!DOCTYPE svg PUBLIC "-//W3C//DTD SVG 1.1//EN" "http://www.w3.org/Graphics/SVG/1.1/DTD/svg11.dtd">
<svg width="100%" height="100%" viewBox="0 0 283 101" version="1.1" xmlns="http://www.w3.org/2000/svg" xmlns:xlink="http://www.w3.org/1999/xlink" xml:space="preserve" xmlns:serif="http://www.serif.com/" style="fill-rule:evenodd;clip-rule:evenodd;stroke-linejoin:round;stroke-miterlimit:2;">
    <g transform="matrix(1,0,0,1,-349.066,-372)">
        <g transform="matrix(-0.184312,0.982868,0.982868,0.184312,415.684,360.371)">
            <path d="M49.61,-58.475C58.996,-56.715 64.151,-42.132 61.113,-25.931L49.61,35.409C43.345,35.135 37.231,36.051 31.522,37.982L49.61,-58.475Z" style="fill:white;fill-rule:nonzero;"/>
        </g>
        <g transform="matrix(1,0,0,1,440.983,436.339)">
            <path d="M0,-17.304L-62.772,-17.304C-62.772,-7.754 -49.39,0 -32.906,0L1.731,0C0.513,-4.319 -0.153,-8.869 -0.153,-13.576C-0.153,-14.831 -0.091,-16.072 0,-17.304" style="fill:white;fill-rule:nonzero;"/>
        </g>
        <g transform="matrix(-0.355237,0.934776,0.934776,0.355237,448.153,430.479)">
            <path d="M22.767,-33.008C31.694,-29.615 34.188,-14.35 28.333,1.058L22.767,15.704C19.844,9.549 15.681,3.979 10.444,-0.58L22.767,-33.008Z" style="fill:white;fill-rule:nonzero;"/>
        </g>
        <g transform="matrix(0.250491,-0.968119,-0.968119,-0.250491,595.839,391.257)">
            <path d="M-22.247,-11.431C-18.118,-27.389 -7.259,-38.403 1.987,-36.011L-22.247,57.649C-26.596,53.477 -31.742,50.051 -37.53,47.639L-22.247,-11.431Z" style="fill:white;fill-rule:nonzero;"/>
        </g>
        <g transform="matrix(1,0,0,1,538.946,419.035)">
            <path d="M0,17.304L33.242,17.304C49.726,17.304 63.109,9.55 63.109,0L1.731,0C1.822,1.232 1.884,2.473 1.884,3.728C1.884,8.435 1.218,12.985 0,17.304" style="fill:white;fill-rule:nonzero;"/>
        </g>
        <g transform="matrix(0.980926,-0.194382,-0.194382,-0.980926,543.019,458.69)">
            <path d="M-1.533,1.681C14.637,-1.524 29.271,3.481 31.128,12.849L-1.533,19.321C-5.155,13.397 -9.954,8.364 -15.534,4.455L-1.533,1.681Z" style="fill:white;fill-rule:nonzero;"/>
        </g>
        <g transform="matrix(1,0,0,1,490.5,377.05)">
            <path d="M0,90.9C-25.101,90.9 -45.45,70.551 -45.45,45.45C-45.45,20.349 -25.101,0 0,0C25.101,0 45.45,20.349 45.45,45.45C45.45,70.551 25.101,90.9 0,90.9M0,-5.05C-27.89,-5.05 -50.5,17.56 -50.5,45.45C-50.5,73.34 -27.89,95.95 0,95.95C27.89,95.95 50.5,73.34 50.5,45.45C50.5,17.56 27.89,-5.05 0,-5.05" style="fill:white;fill-rule:nonzero;"/>
        </g>
        <g transform="matrix(1,0,0,1,482.097,408.266)">
            <path d="M0,28.84L0,49.106L17.148,49.106L17.148,28.84L34.296,38.973L42.87,24.163L25.722,14.42L42.87,4.287L34.296,-10.523L16.758,-0.39L16.758,-20.266L0,-20.266L0,-0.39L-17.148,-10.523L-25.722,4.287L-8.574,14.42L-25.722,24.163L-17.148,38.973L0,28.84Z" style="fill:white;"/>
        </g>
    </g>
</svg>
