<?xml version="1.0" encoding="UTF-8" standalone="no"?>
<!DOCTYPE svg PUBLIC "-//W3C//DTD SVG 1.1//EN" "http://www.w3.org/Graphics/SVG/1.1/DTD/svg11.dtd">
<svg width="100%" height="100%" viewBox="0 0 283 100" version="1.1" xmlns="http://www.w3.org/2000/svg" xmlns:xlink="http://www.w3.org/1999/xlink" xml:space="preserve" xmlns:serif="http://www.serif.com/" style="fill-rule:evenodd;clip-rule:evenodd;">
    <g transform="matrix(1,0,0,1,-524.365,-649.388)">
        <g transform="matrix(1.19156,0,0,1.15149,-118.026,292.395)">
            <ellipse cx="658.09" cy="353.45" rx="41.962" ry="43.422"/>
        </g>
        <g transform="matrix(1,0,0,1,26.3239,339.202)">
            <path d="M652.424,335.777L498.041,335.777C498.041,345.327 511.424,353.081 527.908,353.081L652.424,353.081L652.424,335.777Z"/>
        </g>
        <g transform="matrix(1,0,0,1,55.4685,359.883)">
            <path d="M652.424,335.777L498.041,335.777C498.041,345.327 511.424,353.081 527.908,353.081L652.424,353.081L652.424,335.777Z"/>
        </g>
        <g transform="matrix(1,0,0,1,26.3239,339.202)">
            <path d="M666.129,377.458L558.186,377.458C558.186,387.009 571.568,394.762 588.052,394.762L666.129,394.762L666.129,377.458Z"/>
        </g>
        <g transform="matrix(-1,0,0,1,1304.54,339.202)">
            <path d="M652.424,335.777L498.041,335.777C498.041,345.327 511.424,353.081 527.908,353.081L652.424,353.081L652.424,335.777Z"/>
        </g>
        <g transform="matrix(-1,0,0,1,1275.39,359.883)">
            <path d="M652.424,335.777L498.041,335.777C498.041,345.327 511.424,353.081 527.908,353.081L652.424,353.081L652.424,335.777Z"/>
        </g>
        <g transform="matrix(-1,0,0,1,1304.54,339.202)">
            <path d="M666.129,377.458L558.186,377.458C558.186,387.009 571.568,394.762 588.052,394.762L666.129,394.762L666.129,377.458Z"/>
        </g>
        <g transform="matrix(0.701063,0,0,0.717994,223.086,359.991)">
            <ellipse cx="631.958" cy="472.702" rx="64.188" ry="62.675" style="fill:white;"/>
        </g>
        <g transform="matrix(0.423712,0,0,0.423712,666.129,699.388)">
            <g transform="matrix(1,0,0,1,-96,-96)">
                <g id="cross">
                    <path id="inner" d="M74,133L74,185L118,185L118,133L162,159L184,121L140,96L184,70L162,32L117,58L117,7L74,7L74,58L30,32L8,70L52,96L8,121L30,159L74,133Z" style="stroke:white;stroke-opacity:0;stroke-width:2px;"/>
                </g>
                <g id="symbols">
                </g>
            </g>
        </g>
    </g>
</svg>
