<?xml version="1.0" encoding="UTF-8" standalone="no"?>
<!DOCTYPE svg PUBLIC "-//W3C//DTD SVG 1.1//EN" "http://www.w3.org/Graphics/SVG/1.1/DTD/svg11.dtd">
<svg width="100%" height="100%" viewBox="0 0 144 136" version="1.1" xmlns="http://www.w3.org/2000/svg" xmlns:xlink="http://www.w3.org/1999/xlink" xml:space="preserve" xmlns:serif="http://www.serif.com/" style="fill-rule:evenodd;clip-rule:evenodd;stroke-linejoin:round;stroke-miterlimit:2;">
    <g transform="matrix(1,0,0,1,-1578.12,-1671.53)">
        <g id="Medium-L" transform="matrix(1,0,0,1,1562.05,1774.59)">
            <path d="M16.064,13.77C16.064,19.819 17.696,24.479 20.958,27.748C24.22,31.017 29.01,32.651 35.327,32.651L139.948,32.651C146.503,32.651 151.456,30.99 154.805,27.667C158.155,24.344 159.83,19.438 159.83,12.947L159.83,-83.357C159.83,-89.848 158.155,-94.755 154.805,-98.077C151.456,-101.4 146.503,-103.062 139.948,-103.062L63.697,-103.062C57.142,-103.062 52.19,-101.4 48.84,-98.077C45.49,-94.755 43.816,-89.848 43.816,-83.357L43.816,-53.665L29.798,-53.665C25.48,-53.665 22.112,-52.52 19.693,-50.23C17.274,-47.94 16.064,-44.752 16.064,-40.665L16.064,13.77ZM26.799,13.287L26.799,-38.777C26.799,-40.055 27.178,-41.069 27.937,-41.817C28.696,-42.566 29.727,-42.94 31.032,-42.94L43.816,-42.94L43.816,13.287C43.816,15.816 43.007,17.886 41.39,19.498C39.773,21.111 37.752,21.917 35.327,21.917C32.875,21.917 30.841,21.096 29.224,19.454C27.607,17.812 26.799,15.757 26.799,13.287ZM52.344,21.917C53.814,19.512 54.549,16.651 54.549,13.335L54.549,-82.439C54.549,-89.031 57.803,-92.327 64.31,-92.327L139.304,-92.327C145.832,-92.327 149.096,-89.031 149.096,-82.439L149.096,12.028C149.096,18.621 145.832,21.917 139.304,21.917L52.344,21.917ZM71.111,-64.965L132.623,-64.965C133.699,-64.965 134.599,-65.334 135.323,-66.071C136.048,-66.809 136.41,-67.703 136.41,-68.752C136.41,-69.796 136.049,-70.678 135.328,-71.399C134.607,-72.121 133.705,-72.482 132.623,-72.482L71.111,-72.482C70.003,-72.482 69.087,-72.121 68.366,-71.399C67.645,-70.678 67.284,-69.796 67.284,-68.752C67.284,-67.703 67.645,-66.809 68.366,-66.071C69.087,-65.334 70.003,-64.965 71.111,-64.965ZM71.111,-42.94L132.623,-42.94C133.705,-42.94 134.607,-43.292 135.328,-43.997C136.049,-44.702 136.41,-45.576 136.41,-46.62C136.41,-47.669 136.048,-48.563 135.323,-49.301C134.599,-50.039 133.699,-50.407 132.623,-50.407L71.111,-50.407C70.003,-50.407 69.087,-50.039 68.366,-49.301C67.645,-48.563 67.284,-47.669 67.284,-46.62C67.284,-45.576 67.645,-44.702 68.366,-43.997C69.087,-43.292 70.003,-42.94 71.111,-42.94ZM74.811,1.424L90.716,1.424C93.08,1.424 94.947,0.74 96.317,-0.626C97.686,-1.993 98.371,-3.861 98.371,-6.232L98.371,-20.678C98.371,-23.036 97.686,-24.9 96.317,-26.27C94.947,-27.639 93.08,-28.324 90.716,-28.324L74.811,-28.324C72.441,-28.324 70.564,-27.639 69.181,-26.27C67.798,-24.9 67.107,-23.036 67.107,-20.678L67.107,-6.232C67.107,-3.861 67.798,-1.993 69.181,-0.626C70.564,0.74 72.441,1.424 74.811,1.424ZM109.688,-20.816L132.583,-20.816C133.659,-20.816 134.556,-21.175 135.275,-21.894C135.994,-22.612 136.353,-23.48 136.353,-24.497C136.353,-25.579 135.994,-26.487 135.275,-27.222C134.556,-27.957 133.659,-28.324 132.583,-28.324L109.688,-28.324C108.579,-28.324 107.664,-27.957 106.942,-27.222C106.221,-26.487 105.86,-25.579 105.86,-24.497C105.86,-23.48 106.222,-22.612 106.947,-21.894C107.671,-21.175 108.585,-20.816 109.688,-20.816ZM109.688,1.424L132.583,1.424C133.659,1.424 134.556,1.071 135.275,0.366C135.994,-0.339 136.353,-1.213 136.353,-2.257C136.353,-3.306 135.994,-4.2 135.275,-4.937C134.556,-5.675 133.659,-6.044 132.583,-6.044L109.688,-6.044C108.585,-6.044 107.671,-5.675 106.947,-4.937C106.222,-4.2 105.86,-3.306 105.86,-2.257C105.86,-1.213 106.221,-0.339 106.942,0.366C107.664,1.071 108.579,1.424 109.688,1.424Z" style="fill:rgb(38,110,175);fill-rule:nonzero;"/>
        </g>
    </g>
</svg>
