<?xml version="1.0" encoding="UTF-8" standalone="no"?>
<!DOCTYPE svg PUBLIC "-//W3C//DTD SVG 1.1//EN" "http://www.w3.org/Graphics/SVG/1.1/DTD/svg11.dtd">
<svg width="100%" height="100%" viewBox="0 0 251 111" version="1.1" xmlns="http://www.w3.org/2000/svg" xmlns:xlink="http://www.w3.org/1999/xlink" xml:space="preserve" xmlns:serif="http://www.serif.com/" style="fill-rule:evenodd;clip-rule:evenodd;stroke-linejoin:round;stroke-miterlimit:2;">
    <g transform="matrix(1,0,0,1,-398.46,-1606.66)">
        <g id="Ultralight-L" transform="matrix(1,0,0,1,382.396,1695.73)">
            <path d="M25.071,21.078L111.269,21.078C114.068,21.078 116.268,20.578 117.871,19.577C119.474,18.577 120.275,16.723 120.275,14.017C120.275,10.825 119.501,7.477 117.954,3.973C116.407,0.469 114.158,-2.945 111.208,-6.267C108.257,-9.59 104.656,-12.587 100.405,-15.26C96.153,-17.932 91.323,-20.066 85.914,-21.661C80.504,-23.256 74.59,-24.054 68.17,-24.054C61.75,-24.054 55.836,-23.256 50.426,-21.661C45.017,-20.066 40.194,-17.932 35.958,-15.26C31.722,-12.587 28.121,-9.59 25.157,-6.267C22.192,-2.945 19.936,0.469 18.387,3.973C16.839,7.477 16.064,10.825 16.064,14.017C16.064,16.723 16.873,18.577 18.491,19.577C20.109,20.578 22.303,21.078 25.071,21.078ZM68.355,-35.382C72.971,-35.382 77.114,-36.58 80.785,-38.976C84.457,-41.372 87.349,-44.617 89.462,-48.709C91.575,-52.801 92.632,-57.407 92.632,-62.527C92.632,-66.093 92.01,-69.474 90.766,-72.67C89.523,-75.866 87.798,-78.692 85.593,-81.148C83.387,-83.605 80.809,-85.539 77.859,-86.952C74.908,-88.365 71.74,-89.071 68.355,-89.071C64.941,-89.071 61.759,-88.372 58.807,-86.973C55.856,-85.574 53.27,-83.638 51.049,-81.166C48.829,-78.693 47.098,-75.858 45.855,-72.661C44.612,-69.464 44.021,-66.083 44.082,-62.516C44.082,-57.401 45.138,-52.798 47.25,-48.707C49.362,-44.616 52.254,-41.372 55.925,-38.976C59.596,-36.58 63.74,-35.382 68.355,-35.382Z" style="fill:rgb(39,184,143);fill-rule:nonzero;"/>
            <path d="M141.223,-24.054C134.716,-24.054 128.712,-23.216 123.212,-21.54C117.713,-19.864 112.841,-17.667 108.597,-14.948C113.516,-11.081 117.452,-6.649 120.403,-1.649C123.354,3.35 124.83,8.572 124.83,14.017C124.83,16.874 124.129,19.228 122.726,21.078L184.319,21.078C187.12,21.078 189.33,20.578 190.947,19.577C192.565,18.577 193.374,16.723 193.374,14.017C193.374,10.825 192.6,7.477 191.051,3.973C189.502,0.469 187.246,-2.945 184.282,-6.267C181.317,-9.59 177.709,-12.587 173.458,-15.26C169.207,-17.932 164.384,-20.066 158.989,-21.661C153.595,-23.256 147.673,-24.054 141.223,-24.054ZM141.409,-35.382C146.024,-35.382 150.167,-36.58 153.838,-38.976C157.509,-41.372 160.409,-44.617 162.536,-48.709C164.663,-52.801 165.727,-57.407 165.727,-62.527C165.727,-66.093 165.106,-69.474 163.863,-72.67C162.62,-75.866 160.889,-78.692 158.668,-81.148C156.448,-83.605 153.87,-85.539 150.935,-86.952C148,-88.365 144.824,-89.071 141.409,-89.071C138.023,-89.071 134.847,-88.372 131.882,-86.973C128.916,-85.574 126.323,-83.638 124.102,-81.166C121.882,-78.693 120.15,-75.858 118.906,-72.661C117.662,-69.464 117.072,-66.083 117.135,-62.516C117.135,-57.401 118.199,-52.798 120.326,-48.707C122.453,-44.616 125.345,-41.372 129.001,-38.976C132.657,-36.58 136.793,-35.382 141.409,-35.382Z" style="fill:rgb(77,77,77);fill-rule:nonzero;"/>
            <path d="M214.043,-24.054C207.566,-24.054 201.585,-23.224 196.1,-21.563C190.615,-19.902 185.736,-17.727 181.465,-15.038C186.477,-11.172 190.466,-6.724 193.431,-1.694C196.397,3.335 197.88,8.572 197.88,14.017C197.88,16.874 197.179,19.228 195.776,21.078L257.137,21.078C259.939,21.078 262.141,20.578 263.744,19.577C265.347,18.577 266.148,16.723 266.148,14.017C266.148,10.825 265.374,7.477 263.825,3.973C262.276,0.469 260.027,-2.945 257.078,-6.267C254.129,-9.59 250.528,-12.587 246.275,-15.26C242.022,-17.932 237.192,-20.066 231.784,-21.661C226.376,-23.256 220.462,-24.054 214.043,-24.054ZM214.227,-35.382C218.843,-35.382 222.987,-36.58 226.658,-38.976C230.329,-41.372 233.221,-44.617 235.333,-48.709C237.445,-52.801 238.501,-57.407 238.501,-62.527C238.501,-66.093 237.88,-69.474 236.637,-72.67C235.394,-75.866 233.67,-78.692 231.465,-81.148C229.26,-83.605 226.682,-85.539 223.731,-86.952C220.78,-88.365 217.612,-89.071 214.227,-89.071C210.812,-89.071 207.629,-88.372 204.678,-86.973C201.728,-85.574 199.143,-83.638 196.922,-81.166C194.701,-78.693 192.969,-75.858 191.726,-72.661C190.482,-69.464 189.891,-66.083 189.954,-62.516C189.954,-57.401 191.01,-52.798 193.122,-48.707C195.235,-44.616 198.126,-41.372 201.797,-38.976C205.468,-36.58 209.612,-35.382 214.227,-35.382Z" style="fill:rgb(142,142,142);fill-rule:nonzero;"/>
        </g>
    </g>
</svg>
